<svg xmlns="http://www.w3.org/2000/svg" viewBox="0 0 35 33" fill="none">
	<path d="M32.96 1l-13.13 9.72 2.43-5.73L32.96 1z" fill="#E17726" stroke="#E17726" stroke-width=".25" stroke-linecap="round" stroke-linejoin="round"/>
	<path d="M2.04 1l13 9.81-2.31-5.82L2.04 1zM28.23 23.86l-3.49 5.34 7.45 2.05 2.13-7.27-6.09-.12zM.71 23.98l2.13 7.27 7.45-2.05-3.49-5.34L.71 23.98z" fill="#E27625" stroke="#E27625" stroke-width=".25" stroke-linecap="round" stroke-linejoin="round"/>
	<path d="M9.87 14.51l-2.13 3.22 7.39.33-.26-7.94-5 4.39zM25.12 14.51l-5.07-4.46-.18 8.01 7.39-.33-2.14-3.22zM10.29 29.2l4.45-2.16-3.84-3-.61 5.16zM20.26 27.04l4.46 2.16-.62-5.16-3.84 3z" fill="#E27625" stroke="#E27625" stroke-width=".25" stroke-linecap="round" stroke-linejoin="round"/>
	<path d="M24.72 29.2l-4.46-2.16.36 2.91-.04 1.22 4.14-1.97zM10.29 29.2l4.16 1.97-.03-1.22.34-2.91-4.47 2.16z" fill="#D5BFB2" stroke="#D5BFB2" stroke-width=".25" stroke-linecap="round" stroke-linejoin="round"/>
	<path d="M14.52 21.78l-3.7-1.09 2.61-1.2 1.09 2.29zM20.47 21.78l1.09-2.29 2.62 1.2-3.71 1.09z" fill="#233447" stroke="#233447" stroke-width=".25" stroke-linecap="round" stroke-linejoin="round"/>
	<path d="M10.29 29.2l.63-5.34-4.12.12 3.49 5.22zM24.09 23.86l.63 5.34 3.5-5.22-4.13-.12zM27.26 17.73l-7.39.33.69 3.79 1.09-2.29 2.62 1.2 2.99-3.03zM10.82 20.69l2.62-1.2 1.08 2.29.7-3.79-7.39-.33 2.99 3.03z" fill="#CC6228" stroke="#CC6228" stroke-width=".25" stroke-linecap="round" stroke-linejoin="round"/>
	<path d="M7.83 17.73l3.1 6.04-.11-3.01-2.99-3.03zM24.27 20.76l-.13 3.01 3.12-6.04-2.99 3.03zM15.22 18.06l-.7 3.79.87 4.46.2-5.87-.37-2.38zM19.78 18.06l-.36 2.37.19 5.88.88-4.46-.71-3.79z" fill="#E27525" stroke="#E27525" stroke-width=".25" stroke-linecap="round" stroke-linejoin="round"/>
	<path d="M20.47 21.78l-.88 4.46.63.43 3.85-3-.13-3.01-3.47 1.12zM10.82 20.66l.11 3.01 3.85 3 .63-.43-.87-4.46-3.72-1.12z" fill="#F5841F" stroke="#F5841F" stroke-width=".25" stroke-linecap="round" stroke-linejoin="round"/>
	<path d="M20.55 31.17l.04-1.22-.33-.28h-4.93l-.31.28.03 1.22-4.16-1.97 1.45 1.19 2.95 2.05h5.05l2.96-2.05 1.45-1.19-4.2 1.97z" fill="#C0AC9D" stroke="#C0AC9D" stroke-width=".25" stroke-linecap="round" stroke-linejoin="round"/>
	<path d="M20.22 26.66l-.63-.43h-3.66l-.63.43-.34 2.91.31-.28h4.93l.33.28-.31-2.91z" fill="#161616" stroke="#161616" stroke-width=".25" stroke-linecap="round" stroke-linejoin="round"/>
	<path d="M33.52 11.35l1.11-5.37L32.96 1l-12.74 9.46 4.9 4.14 6.93 2.02 1.53-1.79-.66-.48 1.06-.97-.81-.63 1.06-.81-.71-.59zM.37 5.98l1.12 5.37-.71.53.81.81-.81.63 1.06.97-.66.48 1.53 1.79 6.93-2.02 4.9-4.14L2.04 1 .37 5.98z" fill="#763E1A" stroke="#763E1A" stroke-width=".25" stroke-linecap="round" stroke-linejoin="round"/>
	<path d="M32.05 16.62l-6.93-2.02 2.11 3.13-3.12 6.04 4.12-.05h6.14l-2.32-7.1zM9.87 14.6L2.94 16.62.62 23.72h6.13l4.11.05-3.11-6.04 2.12-3.13zM19.83 18.36l.42-7.66 2.01-5.45h-9.13l1.99 5.45.45 7.66.16 2.42.01 5.85h3.66l.02-5.85.16-2.42z" fill="#F5841F" stroke="#F5841F" stroke-width=".25" stroke-linecap="round" stroke-linejoin="round"/>
</svg>
